<svg viewBox="0 0 24 24" xmlns="http://www.w3.org/2000/svg">
  <path fill="#37814A" d="M21.91 16.924c-1.144-.066-2.585.347-3.955.578-2.678.503-4.57 1.258-4.57 1.258.986-1.579 2.505-3.327 4.148-5.36 2.378-2.923 5.438-6.702 5.09-10.021-.192-1.85-1.245-3.08-2.616-3.32-2.316-.363-4.634 1.487-7.234 4.545-2.083 2.45-3.867 5.163-4.996 7.288-1.564-1.298-3.076-2.222-4.14-2.222-1.921 0-2.392 1.306-2.508 2.05-.152.96.22 2.366 1.77 3.882-1.942.364-2.836 1.433-2.836 1.433 1.01-1.096 2.434-1.637 4.127-1.42.753.088 1.576.29 2.408.643-2.302 2.766-4.184 6.012-4.886 7.502-.132.28-.21.573-.242.868-.066.58.125 1.11.458 1.41.25.226.58.337.954.337.94 0 2.22-.676 3.882-2.31 3.504-3.415 6.44-8.796 7.64-11.233 1.106 2.04 3.013 4.672 5.435 6.398 2.15 1.558 3.84 2.228 5.16 2.228 1.633 0 2.148-.992 2.247-1.558.106-.596-.107-1.554-1.336-1.98z"/>
</svg>
