<svg xmlns="http://www.w3.org/2000/svg" viewBox="0 0 128 128">
  <path fill="#264de4" d="M19.037 113.876L9.032 1.661h109.936l-10.016 112.198-45.019 12.48z"/>
  <path fill="#2965f1" d="M64 116.8l36.378-10.086 8.559-95.878H64z"/>
  <path fill="#EBEBEB" d="M64 52.455H45.788L44.53 38.361H64V24.599H29.489l.33 3.692 3.382 37.927H64zm0 35.743l-.061.017-15.327-4.14-.979-10.957H33.826l1.503 16.848L64 94.614z"/>
  <path fill="#FFF" d="M64 52.455v13.766h16.83l-1.603 17.926-15.227 4.108v14.364l29.489-8.17.202-2.28 2.658-29.743.16-1.782.16-1.783H64v-2.61l19.57-13.796H64V24.599h34.617l-3.376 37.856z"/>
</svg>
