<svg viewBox="0 0 128 128" xmlns="http://www.w3.org/2000/svg">
  <path fill="#2496ed" d="M117.8 77c-2.4-.6-5.8-.4-8.5.5-2.5 1-4.7 2.6-6.4 4.8 5-11.4-1.2-22.1-4.7-27.4-2.8-4.2-7.5-6.6-12.7-6.5h-5.2V27.6c0-1.8-1.5-3.3-3.3-3.3H56.5c-1.8 0-3.3 1.5-3.3 3.3V48H32.7c-1.8 0-3.3 1.5-3.3 3.3v20.4H9.5c-.8 0-1.6.3-2.2.9-.6.6-.9 1.4-.9 2.2v4.4c.1 8.8 1.9 17.5 5.2 25.7 3.5 8.7 8.5 16.6 14.8 23.4 8.2 8.7 18.6 15 30.1 18.2 9.5 2.7 19.4 3.4 29.2 2.1 4.5-.6 8.7-2 12.7-4.1 3.5-1.8 6.7-4.2 9.4-7.2 2.7-2.9 4.8-6.3 6.3-9.9.5-1.1 1-2.2 1.4-3.4 1.2-3.7 2.1-7.6 2.6-11.5.1-1.3-.2-2.5-1-3.6-.9-1.2-2.3-1.8-3.8-1.8zM24.7 94h-8.8v-8.8h8.8V94zm0-15h-8.8v-8.8h8.8v8.8zm15.1 15h-8.8v-8.8h8.8V94zm0-15h-8.8v-8.8h8.8v8.8zm15-15h-8.8v-8.8h8.8v8.8zm0 15h-8.8v-8.8h8.8V94zm0-15h-8.8v-8.8h8.8v8.8zm0-15h-8.8v-8.8h8.8v8.8zm15.1 30h-8.8v-8.8h8.8V94zm0-15h-8.8v-8.8h8.8v8.8zm0-15h-8.8v-8.8h8.8v8.8zm0-15h-8.8V26.2h8.8v8.8zm15.1 45h-8.8v-8.8h8.8V94zm0-15h-8.8v-8.8h8.8v8.8zm0-15h-8.8v-8.8h8.8v8.8zm0-15h-8.8V26.2h8.8v8.8zm11 11.2c2.1-1 4.4-1.3 6.7-.9-1.4 2.8-1 6.1.9 8.6-2.5-1.9-5.8-2.3-8.6-.9.4-2.3.1-4.6-1.1-6.7.7-.1 1.4-.1 2.1-.1zM111 106.3c-2.3 2.5-5 4.6-8.1 6.1-3.6 1.8-7.5 3-11.4 3.5-9 .9-18.1.3-26.8-1.8-10.5-2.5-20-8.2-27.5-16.1-5.7-6-10.2-13.1-13.3-21-2.9-7.3-4.5-15.1-4.7-23.1h15.5v5.5h15.1v-5.5h15.1v-5.5h15.1v5.5h15.1V74c4.6-.3 8.7 1.8 11.1 5.7 3.1 5.1 9.4 15.6 4.7 26.6z"/>
</svg>