<svg xmlns="http://www.w3.org/2000/svg" viewBox="0 0 800 240">
  <!-- Main whale body -->
  <g transform="translate(0, 20)">
    <!-- Containers (boxes) -->
    <rect x="104" y="22" width="60" height="56" rx="4" fill="#2496ED"/>
    <rect x="176" y="22" width="60" height="56" rx="4" fill="#2496ED"/>
    <rect x="248" y="22" width="60" height="56" rx="4" fill="#2496ED"/>
    <rect x="176" y="-38" width="60" height="56" rx="4" fill="#2496ED"/>
    <rect x="248" y="-38" width="60" height="56" rx="4" fill="#2496ED"/>
    <rect x="320" y="-38" width="60" height="56" rx="4" fill="#2496ED"/>
    <rect x="248" y="-98" width="60" height="56" rx="4" fill="#2496ED"/>
    <rect x="320" y="-98" width="60" height="56" rx="4" fill="#2496ED"/>
    <!-- Whale body -->
    <path d="M490 30c0 0-19-17-51-17s-51 24-51 24l-8 72c-4 0-5 7-5 7l-2 17h-73c0 36 26 43 26 43h226s21 0 33-20c10-11 27-32 52-32 27 0 37 11 37 11 10-4 16-16 29-27-13-13-23-5-32 2-22 18-29 10-35 5-55-42-93-62-145-62-14 0-21 1-21 1l-10-61z" fill="#2496ED"/>
    <!-- Eye -->
    <circle cx="548" cy="12" r="6" fill="#fff"/>
    <circle cx="550" cy="11" r="3" fill="#1A6DB5"/>
  </g>
  <!-- "Compose" text -->
  <text x="400" y="210" font-family="Arial, Helvetica, sans-serif" font-size="52" font-weight="700" fill="#384D54" text-anchor="middle">Compose</text>
</svg>